<?xml version="1.0" encoding="utf-8"?>
<!-- Generator: Adobe Illustrator 25.2.1, SVG Export Plug-In . SVG Version: 6.00 Build 0)  -->
<svg version="1.1" id="Layer_1" xmlns="http://www.w3.org/2000/svg" xmlns:xlink="http://www.w3.org/1999/xlink" x="0px" y="0px"
	 viewBox="0 0 1386.85 233.62" style="enable-background:new 0 0 1386.85 233.62;" xml:space="preserve">
<style type="text/css">
	.st0{fill:#273444;}
	.st1{fill:#273444;stroke:#000000;stroke-miterlimit:10;}
	.st2{fill:#2149F3;}
</style>
<g id="Layer_2_1_">
	<g id="Layer_1-2">
		<polygon class="st0" points="67.09,233.62 0,233.62 39.62,165 53.09,172.77 26.93,218.08 67.09,218.08 		"/>
		<polygon class="st0" points="269.76,233.62 149.56,233.62 149.56,218.08 242.83,218.08 210.4,161.9 223.86,154.13 		"/>
		<polygon class="st1" points="93.56,102.66 80.09,94.89 134.88,0 183.4,84.03 169.94,91.8 134.88,31.09 		"/>
		
			<rect x="99.51" y="99.19" transform="matrix(0.301 -0.9536 0.9536 0.301 -63.0613 203.4896)" class="st2" width="15.54" height="91.15"/>
		
			<rect x="91.11" y="136.84" transform="matrix(0.9675 -0.2527 0.2527 0.9675 -43.231 30.9572)" class="st2" width="15.54" height="93.81"/>
		
			<rect x="87.07" y="151.09" transform="matrix(0.7399 -0.6728 0.6728 0.7399 -67.7837 142.4363)" class="st2" width="126.45" height="15.55"/>
		<path class="st0" d="M420.58,80.85v123.41H408.8c-1.57,0.05-3.13-0.25-4.56-0.89c-1.39-0.73-2.6-1.75-3.54-3l-64.44-82.28
			c0.34,3.76,0.51,7.23,0.51,10.41v75.79h-20.22V80.85h12c0.84-0.01,1.68,0.04,2.52,0.13c0.65,0.07,1.28,0.24,1.87,0.51
			c0.58,0.29,1.11,0.66,1.58,1.11c0.62,0.6,1.19,1.24,1.71,1.92L401,167.14c-0.17-2-0.31-3.96-0.42-5.89
			c-0.12-1.94-0.17-3.73-0.17-5.38v-75L420.58,80.85z"/>
		<path class="st0" d="M513.78,103.3c-0.53,1.01-1.27,1.9-2.18,2.6c-0.85,0.56-1.85,0.85-2.86,0.81c-1.39-0.06-2.74-0.52-3.88-1.32
			c-1.39-0.88-3.06-1.86-5-3c-2.17-1.18-4.44-2.17-6.79-2.94c-2.96-0.94-6.06-1.38-9.17-1.32c-2.83-0.05-5.66,0.34-8.37,1.15
			c-2.19,0.67-4.23,1.75-6,3.2c-1.59,1.32-2.83,3-3.63,4.91c-0.81,1.99-1.22,4.12-1.19,6.27c-0.09,2.63,0.77,5.21,2.43,7.25
			c1.78,2.09,3.98,3.79,6.44,5c2.94,1.47,5.99,2.7,9.13,3.67c3.42,1.08,6.92,2.23,10.5,3.46c3.58,1.22,7.08,2.65,10.5,4.27
			c3.34,1.57,6.42,3.64,9.13,6.14c2.73,2.57,4.92,5.66,6.44,9.09c1.73,4.13,2.57,8.58,2.44,13.06c0.04,5.35-0.93,10.67-2.86,15.66
			c-1.85,4.79-4.71,9.13-8.37,12.74c-3.85,3.73-8.43,6.63-13.44,8.53c-5.81,2.17-11.98,3.23-18.18,3.12c-3.9,0-7.78-0.39-11.6-1.15
			c-3.76-0.75-7.44-1.85-11-3.29c-3.44-1.39-6.74-3.1-9.86-5.12c-2.97-1.91-5.72-4.14-8.19-6.66l6.74-11c0.59-0.81,1.35-1.49,2.22-2
			c0.87-0.53,1.88-0.81,2.9-0.81c1.68,0.09,3.29,0.7,4.61,1.75c1.65,1.16,3.61,2.46,5.89,3.88c2.53,1.55,5.21,2.85,8,3.88
			c3.53,1.25,7.26,1.84,11,1.75c6.54,0,11.6-1.55,15.19-4.65c3.59-3.1,5.38-7.55,5.37-13.36c0.13-2.84-0.73-5.64-2.43-7.93
			c-1.76-2.16-3.95-3.92-6.44-5.17c-2.92-1.48-5.98-2.67-9.13-3.54c-3.43-0.99-6.91-2.06-10.44-3.23c-3.55-1.12-7.02-2.46-10.41-4
			c-3.36-1.56-6.45-3.67-9.13-6.23c-2.79-2.73-4.98-6-6.44-9.61c-1.75-4.53-2.58-9.36-2.44-14.21c0.04-9.25,3.83-18.09,10.5-24.49
			c3.65-3.45,7.94-6.15,12.63-7.94c5.5-2.08,11.36-3.1,17.24-3c6.86-0.08,13.68,1.08,20.14,3.41c5.83,2.08,11.18,5.33,15.71,9.56
			L513.78,103.3z"/>
		<path class="st0" d="M598.68,205h-23V81.62h23V205z"/>
		<path class="st0" d="M641.35,128.22c1.76-1.76,3.62-3.4,5.59-4.91c3.93-3.03,8.45-5.18,13.28-6.31c2.69-0.61,5.43-0.91,8.19-0.89
			c4.36-0.08,8.69,0.75,12.72,2.43c3.57,1.53,6.74,3.87,9.26,6.83c2.56,3.09,4.47,6.66,5.63,10.5c1.32,4.36,1.97,8.89,1.92,13.44
			V205h-21.08v-55.7c0-5.33-1.22-9.47-3.67-12.42s-6.18-4.41-11.19-4.39c-3.56-0.01-7.07,0.85-10.23,2.51
			c-3.33,1.77-6.36,4.04-9,6.74V205h-21.13v-87.54h12.89c2.48-0.18,4.74,1.44,5.37,3.84L641.35,128.22z"/>
		<path class="st0" d="M722.52,205v-71.66l-7.6-1.2c-1.46-0.24-2.83-0.84-4-1.75c-1.03-0.88-1.58-2.19-1.5-3.54v-8.62h13.06v-6.48
			c-0.07-4.6,0.69-9.17,2.26-13.49c2.81-7.78,8.99-13.87,16.81-16.56c4.39-1.53,9.01-2.28,13.66-2.21
			c3.81-0.03,7.61,0.51,11.26,1.62l-0.42,10.58c-0.02,0.7-0.26,1.37-0.69,1.92c-0.42,0.5-0.96,0.88-1.57,1.11
			c-0.73,0.28-1.49,0.45-2.27,0.51c-0.91,0.09-1.82,0.13-2.73,0.13c-2.26-0.03-4.51,0.24-6.7,0.81c-1.88,0.49-3.6,1.46-5,2.82
			c-1.46,1.48-2.52,3.3-3.11,5.29c-0.78,2.64-1.14,5.39-1.07,8.15v5.8h22.79v15h-22.1V205H722.52z"/>
		<path class="st0" d="M814,116.1c6.05-0.08,12.06,0.99,17.71,3.16c5.14,1.99,9.8,5.06,13.66,9c3.89,4.04,6.87,8.88,8.74,14.17
			c4.11,12.15,4.11,25.31,0,37.46c-1.88,5.31-4.86,10.17-8.74,14.26c-3.85,3.95-8.51,7.02-13.66,9c-5.65,2.17-11.66,3.24-17.71,3.16
			c-6.09,0.08-12.14-0.99-17.83-3.16c-5.17-1.97-9.84-5.04-13.7-9c-3.89-4.09-6.88-8.95-8.79-14.26c-4.16-12.14-4.16-25.32,0-37.46
			c1.89-5.29,4.89-10.12,8.79-14.17c3.87-3.95,8.54-7.02,13.7-9C801.86,117.09,807.91,116.02,814,116.1z M814,190.1
			c7.29,0,12.68-2.45,16.18-7.34s5.25-12.06,5.24-21.5c0-9.45-1.75-16.65-5.24-21.6c-3.49-4.95-8.89-7.43-16.18-7.43
			c-7.39,0-12.87,2.49-16.43,7.47c-3.56,4.98-5.34,12.16-5.33,21.55c0,9.38,1.78,16.53,5.33,21.46c3.55,4.93,9.03,7.39,16.43,7.38
			V190.1z"/>
		<path class="st0" d="M926.75,134.53c-0.44,0.77-1.05,1.43-1.79,1.92c-0.73,0.4-1.56,0.59-2.39,0.56
			c-1.14-0.03-2.26-0.32-3.28-0.85c-1.17-0.57-2.52-1.21-4.06-1.93c-1.7-0.77-3.45-1.41-5.25-1.92c-2.28-0.61-4.64-0.89-7-0.85
			c-4.16,0-7.42,0.88-9.77,2.65c-2.27,1.56-3.6,4.16-3.55,6.91c-0.05,1.76,0.62,3.47,1.84,4.74c1.4,1.41,3.05,2.55,4.86,3.37
			c2.22,1.04,4.52,1.91,6.87,2.6c2.56,0.77,5.17,1.61,7.81,2.52s5.25,1.95,7.81,3.11c2.5,1.13,4.81,2.63,6.87,4.44
			c4.47,3.88,6.93,9.58,6.7,15.49c0.04,4-0.72,7.96-2.26,11.65c-1.5,3.55-3.79,6.7-6.7,9.22c-3.22,2.74-6.96,4.8-11,6.06
			c-7.75,2.32-15.93,2.79-23.89,1.36c-2.82-0.52-5.59-1.28-8.28-2.26c-2.54-0.91-5-2.05-7.34-3.41c-2.12-1.21-4.11-2.64-5.93-4.27
			l4.86-8c0.56-0.9,1.32-1.66,2.22-2.22c0.99-0.55,2.11-0.81,3.24-0.77c1.32,0,2.61,0.39,3.72,1.11c1.16,0.74,2.51,1.54,4.05,2.39
			c1.74,0.94,3.55,1.74,5.42,2.39c2.55,0.81,5.22,1.19,7.89,1.11c2.18,0.05,4.36-0.26,6.45-0.9c1.61-0.5,3.12-1.29,4.44-2.34
			c1.16-0.9,2.09-2.07,2.69-3.41c0.54-1.26,0.81-2.63,0.81-4c0.06-1.84-0.6-3.63-1.84-5c-1.39-1.43-3.04-2.59-4.86-3.41
			c-2.23-1.05-4.55-1.92-6.92-2.6c-2.59-0.77-5.24-1.61-7.93-2.52c-2.71-0.91-5.36-1.98-7.94-3.2c-2.53-1.19-4.86-2.76-6.91-4.65
			c-2.07-1.95-3.73-4.31-4.87-6.92c-1.3-3.13-1.92-6.51-1.83-9.9c-0.01-3.52,0.71-7.01,2.13-10.24c1.43-3.26,3.58-6.16,6.27-8.49
			c3.04-2.58,6.55-4.55,10.33-5.8c4.61-1.53,9.44-2.27,14.3-2.18c5.63-0.07,11.23,0.95,16.47,3c4.61,1.77,8.81,4.43,12.37,7.85
			L926.75,134.53z"/>
		<path class="st0" d="M1026.18,117.46L978.47,229.1c-0.5,1.32-1.34,2.48-2.43,3.37c-1.35,0.87-2.96,1.27-4.56,1.15h-15.71
			l16.39-35.16l-35.42-81h18.52c1.4-0.08,2.77,0.34,3.88,1.2c0.9,0.74,1.61,1.67,2.09,2.73l18.61,45.4
			c0.61,1.51,1.14,3.04,1.58,4.61c0.43,1.54,0.84,3.1,1.24,4.7c0.51-1.6,1-3.17,1.53-4.74s1.08-3.11,1.71-4.65l17.58-45.32
			c0.46-1.14,1.25-2.12,2.26-2.82c1.03-0.73,2.27-1.12,3.54-1.11L1026.18,117.46z"/>
		<path class="st0" d="M1088.31,134.53c-0.43,0.78-1.05,1.43-1.79,1.92c-0.73,0.4-1.56,0.59-2.39,0.56
			c-1.14-0.03-2.26-0.32-3.28-0.85c-1.17-0.57-2.52-1.21-4.06-1.93c-1.7-0.77-3.45-1.41-5.25-1.92c-2.28-0.61-4.64-0.89-7-0.85
			c-4.16,0-7.42,0.88-9.77,2.65c-2.27,1.56-3.6,4.16-3.55,6.91c-0.05,1.76,0.62,3.47,1.84,4.74c1.4,1.41,3.05,2.55,4.86,3.37
			c2.22,1.04,4.52,1.91,6.87,2.6c2.56,0.77,5.17,1.61,7.81,2.52s5.25,1.95,7.81,3.11c2.5,1.13,4.81,2.63,6.87,4.44
			c4.47,3.88,6.93,9.58,6.7,15.49c0.04,4-0.72,7.96-2.26,11.65c-1.5,3.55-3.79,6.7-6.7,9.22c-3.22,2.74-6.96,4.8-11,6.06
			c-7.75,2.32-15.93,2.79-23.89,1.36c-2.82-0.52-5.59-1.28-8.28-2.26c-2.54-0.91-5-2.06-7.34-3.41c-2.12-1.21-4.11-2.64-5.93-4.27
			l4.86-8c0.56-0.9,1.32-1.66,2.22-2.22c0.99-0.55,2.11-0.81,3.24-0.77c1.32,0,2.61,0.39,3.72,1.11c1.16,0.74,2.49,1.54,4,2.39
			c1.74,0.94,3.55,1.74,5.42,2.39c2.55,0.81,5.22,1.19,7.89,1.11c2.18,0.05,4.36-0.26,6.45-0.9c1.61-0.5,3.12-1.29,4.44-2.34
			c1.11-0.9,1.99-2.06,2.56-3.37c0.54-1.26,0.81-2.63,0.81-4c0.06-1.84-0.6-3.63-1.84-5c-1.39-1.43-3.04-2.59-4.86-3.41
			c-2.23-1.05-4.55-1.92-6.92-2.6c-2.59-0.77-5.24-1.61-7.93-2.52c-2.71-0.91-5.36-1.98-7.94-3.2c-2.53-1.19-4.86-2.76-6.91-4.65
			c-2.07-1.96-3.73-4.31-4.87-6.92c-1.3-3.13-1.92-6.51-1.83-9.9c-0.01-3.52,0.71-7.01,2.13-10.24c1.43-3.26,3.58-6.16,6.27-8.49
			c3.04-2.58,6.55-4.55,10.33-5.8c4.61-1.53,9.44-2.27,14.3-2.18c5.63-0.07,11.23,0.95,16.47,3c4.61,1.77,8.81,4.43,12.37,7.85
			L1088.31,134.53z"/>
		<path class="st0" d="M1139.1,206.39c-7.63,0-13.47-2.15-17.54-6.44c-4.07-4.29-6.1-10.22-6.11-17.79v-48.91h-9
			c-1.07,0.02-2.12-0.38-2.9-1.11c-0.86-0.89-1.29-2.1-1.19-3.33v-8.36l14.08-2.3l4.44-23.9c0.22-1.04,0.79-1.98,1.62-2.65
			c0.89-0.65,1.97-0.98,3.07-0.93h10.93v27.56h23.38v15h-23.38v47.46c-0.14,2.31,0.57,4.58,2,6.4c1.4,1.56,3.42,2.4,5.51,2.3
			c1.11,0.03,2.22-0.13,3.28-0.47c0.79-0.28,1.56-0.61,2.31-1c0.65-0.34,1.23-0.67,1.75-1c0.46-0.3,0.99-0.46,1.53-0.47
			c0.55-0.02,1.09,0.14,1.54,0.47c0.49,0.41,0.92,0.89,1.28,1.41l6.31,10.24c-3.13,2.59-6.72,4.56-10.58,5.8
			C1147.45,205.7,1143.29,206.38,1139.1,206.39z"/>
		<path class="st0" d="M1188.94,163.89c0.23,3.98,1.04,7.9,2.39,11.65c1.1,3.01,2.8,5.77,5,8.11c2.04,2.13,4.54,3.76,7.3,4.78
			c2.99,1.08,6.16,1.62,9.34,1.58c2.99,0.06,5.97-0.34,8.83-1.2c2.24-0.69,4.41-1.57,6.49-2.64c1.85-0.97,3.47-1.86,4.86-2.65
			c1.23-0.74,2.63-1.15,4.06-1.19c1.57-0.09,3.07,0.67,3.92,2l6.06,7.68c-2.26,2.67-4.91,4.98-7.85,6.87
			c-2.85,1.83-5.9,3.31-9.09,4.44c-3.13,1.1-6.36,1.89-9.64,2.35c-3.15,0.44-6.33,0.67-9.52,0.68c-5.8,0.06-11.57-0.95-17-3
			c-5.15-1.97-9.81-5.05-13.66-9c-4.03-4.21-7.13-9.21-9.13-14.68c-2.33-6.5-3.46-13.37-3.33-20.27c-0.04-5.75,0.94-11.46,2.9-16.86
			c1.83-5.09,4.67-9.76,8.33-13.74c3.72-3.97,8.22-7.12,13.22-9.26c5.56-2.35,11.55-3.52,17.58-3.44
			c5.21-0.05,10.39,0.84,15.28,2.64c4.51,1.68,8.6,4.32,12,7.73c3.47,3.56,6.16,7.8,7.89,12.46c1.99,5.39,2.96,11.1,2.86,16.85
			c0,3.19-0.33,5.34-1,6.45c-0.68,1.11-2,1.66-3.93,1.66L1188.94,163.89z M1229.14,151.18c0.02-2.62-0.38-5.23-1.16-7.73
			c-0.72-2.33-1.89-4.49-3.45-6.36c-1.6-1.86-3.6-3.33-5.85-4.31c-2.6-1.1-5.41-1.63-8.23-1.57c-6.09,0-10.89,1.73-14.39,5.2
			c-3.5,3.47-5.73,8.39-6.7,14.77H1229.14z"/>
		<path class="st0" d="M1263.87,205v-87.54h12.89c2.48-0.18,4.74,1.44,5.37,3.84l1.37,6.49c1.5-1.67,3.11-3.24,4.82-4.69
			c1.66-1.41,3.46-2.64,5.38-3.67c1.95-1.05,4.01-1.86,6.14-2.44c2.36-0.61,4.78-0.91,7.22-0.89c5.51,0,10.04,1.49,13.61,4.48
			c3.69,3.18,6.45,7.29,8,11.91c1.27-2.77,3-5.29,5.12-7.47c1.98-2.03,4.25-3.74,6.74-5.08c2.46-1.32,5.09-2.29,7.81-2.9
			c2.73-0.63,5.52-0.94,8.32-0.94c4.4-0.08,8.77,0.68,12.89,2.22c3.62,1.39,6.86,3.61,9.47,6.48c2.66,3.02,4.65,6.57,5.85,10.42
			c1.4,4.56,2.08,9.31,2,14.08V205h-21.08v-55.7c0-5.58-1.22-9.78-3.67-12.59c-2.45-2.81-6.03-4.22-10.75-4.22
			c-2.05-0.01-4.09,0.36-6,1.1c-1.82,0.72-3.48,1.82-4.86,3.21c-1.46,1.49-2.58,3.28-3.29,5.24c-0.83,2.33-1.23,4.79-1.19,7.26V205
			h-21.17v-55.7c0-5.86-1.18-10.13-3.54-12.8s-5.82-4.01-10.37-4c-3.01-0.02-5.97,0.76-8.58,2.26c-2.79,1.63-5.28,3.72-7.38,6.18
			V205H1263.87z"/>
	</g>
</g>
</svg>
